<svg xmlns="http://www.w3.org/2000/svg" width="400" height="400" enable-background="new 0 0 400 400" viewBox="0 0 400 400"><circle cx="133.201" cy="305.877" r="23.439" fill="#0B4870"/><circle cx="302.274" cy="305.877" r="23.439" fill="#0B4870"/><path fill="#D3D3D3" d="M326.599,267.635c0,2.842-1.153,5.428-3.03,7.307c-1.863,1.881-4.449,3.031-7.312,3.031H143.237
	c-5.052,0-9.325-3.238-10.862-7.756l-0.188-0.553l-3.931-12.373L77.199,96.973l-2.293-7.205c-1.725-5.445,1.272-11.256,6.722-12.996
	c1.034-0.33,2.102-0.486,3.136-0.486c4.379,0,8.447,2.795,9.863,7.209l1.881,5.906l6.666,20.916L109.762,131l33.665,105.742
	l4.189,13.135c1.431,3.947,4.981,6.877,9.289,7.414h159.351C321.965,257.291,326.599,261.908,326.599,267.635z"/><path fill="#2A94F4" d="M326.595,137.414v72.23c0,14.961-12.113,27.094-27.074,27.094H143.426l-33.661-105.742h214.134
	c0.647,0,1.277-0.057,1.897-0.17C326.322,132.932,326.595,135.141,326.595,137.414z"/><path fill="#0E538C" d="M100.924 85.506c0 2.863-1.154 5.449-3.032 7.311-1.862 1.879-4.448 3.033-7.31 3.033H44.9c-5.707 0-10.343-4.637-10.343-10.344 0-2.861 1.154-5.447 3.033-7.309 1.862-1.879 4.447-3.033 7.31-3.033h45.682C96.288 75.164 100.924 79.803 100.924 85.506zM261.319 158.238v50.148c0 5.703-4.643 10.336-10.348 10.336-2.856 0-5.44-1.156-7.301-3.035-1.879-1.852-3.036-4.445-3.036-7.301v-50.148c0-5.703 4.633-10.336 10.337-10.336 2.867 0 5.45 1.156 7.312 3.035C260.163 152.797 261.319 155.383 261.319 158.238zM172.032 158.238v50.148c0 5.703-4.633 10.336-10.347 10.336-2.857 0-5.441-1.156-7.302-3.035-1.88-1.852-3.036-4.445-3.036-7.301v-50.148c0-5.703 4.633-10.336 10.338-10.336 2.866 0 5.451 1.156 7.321 3.035C170.877 152.797 172.032 155.383 172.032 158.238zM216.004 158.238v50.148c0 5.703-4.643 10.336-10.347 10.336-2.856 0-5.441-1.156-7.312-3.035-1.879-1.852-3.025-4.445-3.025-7.301v-50.148c0-5.703 4.633-10.336 10.337-10.336 2.866 0 5.45 1.156 7.312 3.035C214.849 152.797 216.004 155.383 216.004 158.238zM307.978 158.238v50.148c0 5.703-4.632 10.336-10.337 10.336-2.856 0-5.45-1.156-7.312-3.035-1.88-1.852-3.035-4.445-3.035-7.301v-50.148c0-5.703 4.642-10.336 10.347-10.336 2.856 0 5.45 1.156 7.312 3.035C306.822 152.797 307.978 155.383 307.978 158.238zM163.76 268.531c2.061 1.988 3.118 4.613 3.155 7.258.06 2.645-.905 5.309-2.894 7.367l-18.445 19.117c-3.961 4.105-10.518 4.221-14.623.26-2.061-1.988-3.123-4.613-3.156-7.258-.059-2.646.907-5.309 2.893-7.367l18.445-19.115C153.096 264.688 159.654 264.57 163.76 268.531zM302.938 265.637c2.862-.043 5.463 1.076 7.353 2.924 1.907 1.834 3.1 4.404 3.141 7.266l.391 26.562c.083 5.703-4.484 10.406-10.19 10.49-2.862.043-5.466-1.072-7.352-2.924-1.908-1.834-3.101-4.404-3.143-7.264l-.39-26.561C292.663 270.426 297.232 265.721 302.938 265.637zM334.235 120.658c0 2.857-1.156 5.451-3.036 7.312-1.438 1.455-3.308 2.471-5.403 2.855-.62.113-1.25.17-1.897.17H109.765l-6.589-20.676h220.723C329.602 110.32 334.235 114.955 334.235 120.658z"/><path fill="#FFF" d="M308.839 93.088h26.647c4.58 0 8.31 3.729 8.31 8.309 0 2.303-.93 4.379-2.438 5.871-1.494 1.512-3.577 2.439-5.871 2.439h-26.647M308.839 109.707h-10.036c-4.582 0-8.309-3.729-8.309-8.311 0-2.293.927-4.375 2.438-5.871 1.494-1.508 3.57-2.438 5.871-2.438h10.036"/></svg>